<?xml version="1.0" encoding="UTF-8" standalone="no"?>
<svg
   version="1.0"
   width="300.000000pt"
   height="300.000000pt"
   viewBox="0 0 300.000000 300.000000"
   preserveAspectRatio="xMidYMid meet"
   id="svg4"
   sodipodi:docname="logo-outline.svg"
   inkscape:version="1.4.2 (f4327f4, 2025-05-13)"
   inkscape:export-filename="logo-outline-192.png"
   inkscape:export-xdpi="46.080002"
   inkscape:export-ydpi="46.080002"
   xmlns:inkscape="http://www.inkscape.org/namespaces/inkscape"
   xmlns:sodipodi="http://sodipodi.sourceforge.net/DTD/sodipodi-0.dtd"
   xmlns="http://www.w3.org/2000/svg"
   xmlns:svg="http://www.w3.org/2000/svg">
  <defs
     id="defs4" />
  <sodipodi:namedview
     id="namedview4"
     pagecolor="#ffffff"
     bordercolor="#000000"
     borderopacity="0.25"
     inkscape:showpageshadow="2"
     inkscape:pageopacity="0.0"
     inkscape:pagecheckerboard="0"
     inkscape:deskcolor="#d1d1d1"
     inkscape:document-units="pt"
     showgrid="false"
     inkscape:zoom="0.96625"
     inkscape:cx="357.05045"
     inkscape:cy="171.28072"
     inkscape:window-width="1920"
     inkscape:window-height="991"
     inkscape:window-x="-9"
     inkscape:window-y="-9"
     inkscape:window-maximized="1"
     inkscape:current-layer="svg4" />
  <metadata
     id="metadata1">
Created by potrace 1.10, written by Peter Selinger 2001-2011
</metadata>
  <g
     transform="matrix(0.144,0,0,-0.144,-65.196,374.3956)"
     fill="#000000"
     stroke="none"
     id="g4"
     style="stroke-width:0.694444">
    <path
       d="m 2225,2539 c -33,-17 -57,-58 -63,-106 -4,-41 -14,-54 -103,-145 -111,-113 -92,-111 -209,-24 -97,72 -140,73 -176,5 -15,-29 -14,-32 10,-67 13,-21 39,-52 55,-71 17,-18 31,-37 31,-41 0,-12 -36,-40 -51,-40 -14,0 -60,126 -59,163 0,10 -4,15 -10,12 -5,-3 -12,6 -16,21 -4,15 -13,39 -20,53 -8,14 -14,32 -14,39 0,7 -4,20 -9,30 -5,9 -15,31 -22,47 -20,46 -40,65 -66,65 -13,0 -32,-8 -43,-17 -15,-15 -100,-213 -100,-236 0,-7 -34,-88 -51,-119 -5,-10 -9,-23 -9,-29 0,-20 -64,-184 -75,-191 -6,-5 -6,-8 0,-8 5,0 0,-7 -11,-14 -12,-8 -30,-15 -40,-14 -10,0 -75,-2 -144,-6 -69,-3 -208,-7 -310,-8 -174,-2 -186,-4 -209,-24 -13,-12 -25,-33 -26,-48 -4,-28 49,-81 206,-203 47,-38 114,-90 147,-118 90,-74 134,-105 149,-105 29,0 8,-30 -101,-144 C 782,1087 768,1068 712,956 679,888 648,822 645,808 c -8,-30 9,-68 30,-68 7,0 59,18 114,39 65,25 101,35 101,27 0,-6 -4,-16 -9,-22 -12,-12 -41,-116 -41,-146 0,-38 27,-68 61,-68 25,0 87,31 123,62 28,23 250,179 408,285 l 68,46 77,-53 c 43,-29 123,-84 178,-122 296,-202 321,-218 347,-218 37,0 59,36 56,89 -2,22 -6,41 -9,41 -4,0 -9,15 -12,33 -4,33 -52,206 -67,242 -4,11 -13,45 -19,75 -7,30 -16,64 -20,75 -18,46 -32,97 -37,134 -4,36 -1,43 33,74 21,19 71,60 112,91 41,31 90,70 108,86 18,17 37,30 42,30 5,0 11,3 13,8 3,6 37,35 138,117 61,50 81,78 75,104 -8,33 -25,50 -56,56 -47,10 -175,8 -196,-3 -18,-10 -22,-8 -27,14 -4,15 -32,60 -63,102 -31,42 -56,81 -57,88 -1,7 39,56 88,109 79,85 94,97 144,111 76,22 112,59 112,115 0,115 -143,223 -235,178 z m 121,-45 c 55,-35 84,-81 84,-131 0,-49 -23,-73 -80,-80 -40,-6 -44,-4 -102,53 -56,56 -59,61 -55,97 11,83 78,110 153,61 z m -741,-259 76,-199 -340,-340 -339,-339 -99,79 c -378,299 -418,337 -383,359 5,3 168,10 362,16 194,6 356,13 359,17 3,4 57,143 119,310 65,175 119,306 129,312 10,6 20,5 28,-3 7,-7 46,-102 88,-212 z m 633,78 c 18,-18 40,-33 48,-33 8,0 14,-3 14,-6 0,-11 -211,-234 -221,-234 -5,0 -13,11 -18,23 -9,23 -47,59 -87,83 -17,11 -9,22 95,125 104,105 114,112 125,94 6,-11 26,-35 44,-52 z m -367,-107 c 57,-46 125,-106 150,-133 65,-67 189,-232 189,-251 0,-19 -29,-52 -46,-52 -6,0 -47,32 -89,72 l -76,71 -512,-510 C 1131,1048 961,885 930,869 842,825 675,762 667,769 c -5,5 24,73 63,152 l 72,144 510,512 511,511 -64,71 c -35,40 -66,76 -68,82 -5,16 30,49 54,49 12,0 67,-37 126,-84 z m 216,-447 c 47,-45 58,-50 84,-45 39,8 86,41 94,66 6,18 16,20 104,20 98,0 122,-8 120,-40 0,-8 -123,-113 -273,-232 l -273,-218 97,-342 c 95,-334 103,-378 70,-378 -6,0 -144,92 -307,205 -188,131 -302,204 -312,200 -12,-5 -240,-162 -517,-356 -106,-74 -122,-59 -83,75 20,70 22,73 72,99 39,20 175,150 537,512 371,371 491,485 509,485 15,0 44,-19 78,-51 z"
       id="path2"
       style="stroke-width:0.694444" />
    <path
       d="m 1835,2070 c 5,-8 20,-30 33,-48 l 25,-33 -568,-569 C 1012,1107 752,843 747,833 c -7,-13 -2,-11 18,7 22,20 818,817 1081,1083 31,31 59,57 63,57 3,0 19,-14 35,-30 16,-17 34,-30 40,-30 9,0 -5,16 -80,95 -34,36 -77,70 -69,55 z"
       id="path3"
       style="stroke-width:0.694444" />
  </g>
</svg>
