<?xml version="1.0" encoding="UTF-8" standalone="no"?>
<!-- Created with Inkscape (http://www.inkscape.org/) -->

<svg
   width="1024"
   height="1024"
   viewBox="0 0 270.93333 270.93333"
   version="1.1"
   id="svg1"
   inkscape:version="1.4.2 (f4327f4, 2025-05-13)"
   sodipodi:docname="logo.svg"
   inkscape:export-filename="logo-512.png"
   inkscape:export-xdpi="59.650486"
   inkscape:export-ydpi="59.650486"
   xmlns:inkscape="http://www.inkscape.org/namespaces/inkscape"
   xmlns:sodipodi="http://sodipodi.sourceforge.net/DTD/sodipodi-0.dtd"
   xmlns="http://www.w3.org/2000/svg"
   xmlns:svg="http://www.w3.org/2000/svg">
  <sodipodi:namedview
     id="namedview1"
     pagecolor="#ffffff"
     bordercolor="#000000"
     borderopacity="0.25"
     inkscape:showpageshadow="2"
     inkscape:pageopacity="0.0"
     inkscape:pagecheckerboard="0"
     inkscape:deskcolor="#d1d1d1"
     inkscape:document-units="mm"
     inkscape:zoom="0.5"
     inkscape:cx="356"
     inkscape:cy="471"
     inkscape:window-width="1920"
     inkscape:window-height="991"
     inkscape:window-x="-9"
     inkscape:window-y="-9"
     inkscape:window-maximized="1"
     inkscape:current-layer="svg1"
     inkscape:export-bgcolor="#00000000" />
  <defs
     id="defs1" />
  <rect
     style="display:inline;fill:#000000;fill-opacity:1;stroke-width:0.282223;stroke-linecap:round;stroke-linejoin:round"
     id="rect1"
     width="218.01666"
     height="218.01666"
     x="26.458334"
     y="26.458334"
     inkscape:label="rect1"
     rx="40.234425" />
  <g
     inkscape:label="Layer 1"
     inkscape:groupmode="layer"
     id="layer1">
    <g
       fill="#404040"
       stroke-width="0"
       id="g5"
       transform="matrix(0.26458333,0,0,0.26458333,-33.867072,-33.866666)"
       style="display:inline">
      <path
         d="m 876.3,330.5 c 0,2.2 0.2,3 0.4,1.7 0.2,-1.2 0.2,-3 0,-4 -0.3,-0.9 -0.5,0.1 -0.4,2.3 M 835.5,377 c -23.1,23.2 -42.2,42.3 -42.4,42.5 -0.8,0.8 3.1,4.5 4.1,3.9 1.2,-0.8 30.8,28.6 31.2,30.8 0.2,1.8 3.4,5.8 4.6,5.8 1.6,0 82.8,-84.1 82.6,-85.5 -0.3,-1.7 -10.7,-12.7 -11.4,-12 -0.7,0.7 -8.3,-5.6 -7.7,-6.4 0.2,-0.4 -1.5,-2.5 -3.8,-4.7 l -4.2,-3.9 3.5,4.1 c 1.9,2.2 0.9,1.4 -2.3,-1.8 -3.2,-3.3 -5.5,-6.3 -5.3,-6.7 0.3,-0.4 -0.9,-2.1 -2.7,-3.7 l -3.2,-2.9 3,3.5 3,3.5 -3.7,-3.4 c -2.1,-1.9 -3.5,-3.8 -3.2,-4.3 0.3,-0.4 0.4,-0.8 0.2,-0.8 -0.2,0 -19.2,18.9 -42.3,42 m 74.5,-8.5 c 3,3 5.2,5.5 4.9,5.5 -0.2,0 -2.9,-2.5 -5.9,-5.5 -3,-3 -5.2,-5.5 -4.9,-5.5 0.2,0 2.9,2.5 5.9,5.5 m 9.3,6.2 c 1.5,0.2 3.9,0.2 5.5,0 1.5,-0.2 0.2,-0.4 -2.8,-0.4 -3,0 -4.3,0.2 -2.7,0.4"
         id="path3" />
      <path
         d="m 807.5,434 c 3.8,3.8 7.2,7 7.4,7 0.3,0 -2.6,-3.2 -6.4,-7 -3.8,-3.9 -7.2,-7 -7.4,-7 -0.3,0 2.6,3.1 6.4,7 m -57,5 c -0.3,0.5 4.5,7.9 10.7,16.5 6.2,8.5 11.3,15.9 11.3,16.4 0,5.85966 -93.45238,91.31711 -343,346.1 -8.03818,22.46906 -68.52635,47.14134 -68.2,71.4 1,0.2 85.86288,-34.98779 86.3,-36.3 116.00637,-97.3412 361.7,-351.8 362,-353.6 0.2,-1.4 -33.1,-38.5 -36,-40.2 -0.8,-0.4 -6.2,-5.4 -12,-11 -5.8,-5.7 -10.8,-9.8 -11.1,-9.3 m 70,8 c 2.7,2.7 5.1,5 5.4,5 0.3,0 -1.7,-2.3 -4.4,-5 -2.7,-2.8 -5.1,-5 -5.4,-5 -0.3,0 1.7,2.2 4.4,5 m -2,60 c 4.4,4.4 8.2,8 8.5,8 0.2,0 -3.1,-3.6 -7.5,-8 -4.4,-4.4 -8.2,-8 -8.5,-8 -0.2,0 3.1,3.6 7.5,8"
         id="path4"
         sodipodi:nodetypes="cscscccsccccccccscsccsssc" />
    </g>
    <g
       fill="#808080"
       stroke-width="0"
       id="g7"
       transform="matrix(0.26458333,0,0,0.26458333,-33.867072,-33.866666)"
       style="display:inline">
      <path
         d="m 900.6,293.1 c -38.09903,10.13106 -22.34074,56.60612 4.96826,70.3318 18.66222,26.21184 66.32071,-2.71392 49.04131,-32.36978 C 946.14316,310.24964 922.36607,291.48437 900.6,293.1 Z m -180.4,78.1 c -34.18446,22.27696 23.97947,49.165 35.63023,70.79714 34.02557,35.63182 68.09113,71.53763 106.36588,102.67714 39.30991,-3.07559 1.9588,-42.39887 -10.12074,-57.92868 C 824.20864,445.75273 786.83566,412.40058 745.96082,384.86019 738.19993,379.8932 730.66228,367.71762 720.2,371.2 Z"
         id="path6" />
      <path
         d="m 747.9,440.7 c -16.06839,19.20044 -37.26615,37.22873 -55.19484,56.10729 C 596.42854,593.46427 499.2168,689.24241 405.0898,788.00311 383.03965,817.23362 375.15166,854.80539 355.6,885.2 c 11.18196,8.93941 30.42496,-29.47785 44.71321,-37.67773 C 524.10006,721.87741 648.82982,597.16668 773.3,472.2 764.83084,462.00616 758.02129,447.98617 747.9,440.7 Z"
         id="path7" />
    </g>
    <g
       fill="#bf8000"
       stroke-width="0"
       id="g19"
       transform="matrix(0.26458333,0,0,0.26458333,-33.867072,-33.866666)">
      <path
         d="m 640.5,316.2 c -9.6043,-1.5031 -10.296,6.25957 -11.7,10.2 -19.59084,55.41143 -72.68006,203.88139 -79.8,205.6 -8.81874,2.51963 -224.51676,3.43538 -242.4,9.1 -4.27024,0.84596 -5.06843,6.98845 -3,9.1 2.525,2.65 163.09949,135.83515 165,135.9 1.11257,0.0398 230.95909,-226.19872 231.4,-230.6 -0.4382,-3.71208 -42.38095,-115.66495 -48,-126 -4.4494,-6.77389 -4.33606,-13.40962 -11.5,-13.3"
         id="path17"
         style="display:inline"
         sodipodi:nodetypes="ccccccccc" />
      <path
         d="m 456.6,876.2 c -2.99408,2.86257 -11.08329,7.1 -15.3,7.1 -0.7,0 -1,0.4 -0.7,0.8 0.53959,0.92501 -13.25406,45.20471 -13.8,48.6 -0.58629,3.85705 -1.83145,7.32828 1.3,11.9 1.44233,2.44174 3.71863,3.77681 6.9,3.9 2.1,0 2.19375,-0.20625 3.4,-0.6 C 496.36494,914.02934 570.86796,847.58344 635.85693,811.42322 636.9273,810.9561 636.91043,810.04183 640,810 c 2.43191,-0.0329 3.9958,0.69322 5.41309,1.99775 C 646.1519,812.71424 829.39312,940.06783 841.1,946.2 c 6.5,3.3 12.2,0.5 13.8,-6.9 1.1595,-5.60423 -63.9,-226.91632 -63.9,-231.4 0,-3.6 0.6,-4.7 4.1,-8.1 56.52245,-45.51522 124.55456,-102.02341 180.4,-149.1875 1.875,-1.9625 0.54858,-9.1402 -3.1,-9.7125 -1.27168,-0.19933 -24.66538,-1.19703 -46.6,-1.75 -9.89843,-0.27132 -16.82516,-1.86596 -21.8,1.35 -7.92478,10.17747 -20.62275,22.19495 -33,28 -4.25929,1.9505 -13.83508,-2.12044 -13.9,-2.1 -11.19626,-5.79461 -28.87464,-22.75912 -34.1,-28 -3.16421,-3.52268 -17.41926,-3.68696 -19.8875,-0.1125"
         id="path18"
         sodipodi:nodetypes="cscccsccscccsccscccccc"
         style="display:inline" />
    </g>
  </g>
</svg>
